<?xml version="1.0" encoding="UTF-8"?>
<svg id="Capa_2" data-name="Capa 2" xmlns="http://www.w3.org/2000/svg" viewBox="0 0 237.51 301.49">
  <g id="Capa_1-2" data-name="Capa 1">
    <g>
      <g>
        <path d="M71.64,73.61c-24.77.01-42.86,19.84-42.87,43.07l-.02,53.43c0,6.42-6.6,12.77-12.56,13s-13.22-6.31-13.19-12.78l.32-56.06c.21-36.58,30.84-66.18,66.85-66.37l67.35-.35-21.48-22.75c-3.18-3.36-3.95-11.73-2.03-15.68,2.2-4.53,14.2-8.37,18.03-4.57l48.76,48.46c3.85,3.82,1.95,13.92-1.81,17.67l-43.7,43.67c-4.76,4.76-14.02,5.57-18.75,1.38-5.8-5.13-5.29-14.4.1-19.85l22.04-22.29-67.05.03Z"/>
        <path d="M15.89,186.12c-3.58,0-7.58-1.81-10.77-4.89C1.85,178.06-.02,174.08,0,170.31l.32-56.06c.11-18.4,7.53-35.79,20.9-48.95,13.27-13.06,30.65-20.3,48.94-20.4l60.45-.31-16.74-17.73c-4.19-4.44-4.91-14.19-2.55-19.05,1.96-4.03,7.95-6.73,12.69-7.53,4.41-.75,8.01.01,10.15,2.14l48.76,48.46c1.96,1.94,2.99,4.91,3,8.59,0,5.02-1.97,10.51-4.8,13.34l-43.7,43.67c-5.93,5.92-17.04,6.65-22.86,1.5-3.17-2.81-5-6.78-5.15-11.19-.16-4.83,1.7-9.57,5.1-13.02l16.98-17.18-59.86.02c-22.35,0-39.87,17.61-39.88,40.08l-.02,53.43c0,7.77-7.65,15.69-15.44,15.99-.13,0-.27,0-.41,0ZM127.19,6c-.63,0-1.36.06-2.18.2-4.21.72-7.67,2.95-8.3,4.24-1.36,2.79-.78,9.89,1.51,12.31l26.22,27.77-74.26.39c-35.02.18-63.67,28.62-63.87,63.39l-.32,56.06c-.01,2.1,1.22,4.56,3.3,6.57,2.09,2.02,4.78,3.27,6.77,3.2,4.22-.16,9.67-5.04,9.67-10l.02-53.43c.01-25.82,20.16-46.06,45.87-46.07l74.24-.03-27.09,27.4c-2.22,2.24-3.48,5.46-3.37,8.6.09,2.74,1.2,5.19,3.13,6.89,3.45,3.05,10.97,2.41,14.64-1.25l43.7-43.67c1.71-1.71,3.04-5.7,3.04-9.09,0-1.99-.45-3.57-1.22-4.34L129.93,6.68c-.39-.39-1.33-.68-2.74-.68Z"/>
      </g>
      <g>
        <path d="M58.67,250.48c-5.93-5.91-4.83-14.77.12-19.69l45.1-44.83c3.87-3.85,13.26-3.29,16.96-.05,4.3,3.76,5.44,13.74,1.24,18.19l-22.32,23.68,67.25-.23c22.08-.07,41.18-18.35,41.44-40.57l.68-58.01c.05-4.7,8.11-10.8,12.47-10.8,6.17,0,12.86,6.11,12.86,12.87l.03,53.33c.02,40.67-32.32,69.35-72.23,69.33l-62.44-.04,21.57,22.67c4.22,4.44,4.5,13.6.36,17.99-4.83,5.13-13.24,5.91-18.96.2l-44.13-44.04Z"/>
        <path d="M112.15,301.49c-4.26,0-8.33-1.72-11.47-4.85l-44.13-44.04c-3.17-3.16-4.92-7.34-4.91-11.76,0-4.56,1.84-9,5.04-12.18l45.1-44.83c5.12-5.09,16.2-4.42,21.05-.18,2.82,2.46,4.64,6.79,4.87,11.57.22,4.42-1.03,8.4-3.42,10.94l-17.53,18.6,60.26-.2c20.6-.07,38.21-17.29,38.45-37.6l.68-58.01c.08-6.82,9.98-13.76,15.47-13.77h.02c3.86,0,7.86,1.79,10.99,4.92,3.08,3.08,4.85,7.07,4.86,10.96l.03,53.33c.01,19.39-7.25,37.33-20.45,50.53-14.06,14.06-33.49,21.8-54.73,21.8h-.06l-55.44-.04,16.74,17.59c5.38,5.65,5.56,16.61.37,22.12-3,3.18-7.21,5.05-11.56,5.11-.08,0-.16,0-.24,0ZM112.07,186.28c-2.43,0-4.81.56-6.06,1.81l-45.1,44.83c-2.04,2.03-3.26,5-3.27,7.93,0,1.99.54,4.91,3.15,7.51l44.13,44.04c2.62,2.61,5.46,3.12,7.38,3.09,2.73-.04,5.38-1.22,7.28-3.23,2.99-3.17,2.8-10.55-.35-13.86l-26.4-27.74,69.45.04h.05c19.63,0,37.56-7.12,50.49-20.04,12.07-12.07,18.71-28.5,18.69-46.28l-.03-53.33c0-2.31-1.13-4.75-3.09-6.71-1.99-1.98-4.51-3.16-6.75-3.16h0c-3.16,0-9.45,5.21-9.48,7.84l-.68,58.01c-.28,23.52-20.62,43.45-44.43,43.53l-74.23.25,27.11-28.77c1.26-1.33,1.93-3.77,1.79-6.53-.15-3.05-1.28-6-2.83-7.35-1.38-1.2-4.13-1.89-6.81-1.89Z"/>
      </g>
    </g>
  </g>
</svg>